<mxfile host="app.diagrams.net" modified="2022-01-28T21:45:17.162Z" agent="5.0 (Macintosh; Intel Mac OS X 10_15_7) AppleWebKit/537.36 (KHTML, like Gecko) Chrome/97.0.4692.99 Safari/537.36" etag="J8FnsqRdxrfcRR9KEjHa" version="16.4.7" type="github">
  <diagram id="FpX4XkZvjuvVcq41q7QR" name="Page-1">
    <mxGraphModel dx="1426" dy="826" grid="0" gridSize="10" guides="1" tooltips="1" connect="1" arrows="1" fold="1" page="1" pageScale="1" pageWidth="850" pageHeight="1100" math="0" shadow="0">
      <root>
        <mxCell id="0" />
        <mxCell id="1" parent="0" />
        <mxCell id="mZ2ww14Otbq7PTDc8xvk-18" style="edgeStyle=orthogonalEdgeStyle;rounded=0;orthogonalLoop=1;jettySize=auto;html=1;entryX=1;entryY=0.5;entryDx=0;entryDy=0;entryPerimeter=0;strokeColor=#EA6B66;strokeWidth=2;dashed=1;dashPattern=1 1;" edge="1" parent="1" source="mZ2ww14Otbq7PTDc8xvk-1" target="mZ2ww14Otbq7PTDc8xvk-6">
          <mxGeometry relative="1" as="geometry" />
        </mxCell>
        <mxCell id="mZ2ww14Otbq7PTDc8xvk-23" value="Data" style="edgeLabel;html=1;align=center;verticalAlign=middle;resizable=0;points=[];" vertex="1" connectable="0" parent="mZ2ww14Otbq7PTDc8xvk-18">
          <mxGeometry x="-0.0976" y="2" relative="1" as="geometry">
            <mxPoint as="offset" />
          </mxGeometry>
        </mxCell>
        <mxCell id="mZ2ww14Otbq7PTDc8xvk-20" style="edgeStyle=orthogonalEdgeStyle;rounded=0;orthogonalLoop=1;jettySize=auto;html=1;strokeColor=default;strokeWidth=1;" edge="1" parent="1" source="mZ2ww14Otbq7PTDc8xvk-1" target="mZ2ww14Otbq7PTDc8xvk-9">
          <mxGeometry relative="1" as="geometry">
            <Array as="points">
              <mxPoint x="359" y="479" />
            </Array>
          </mxGeometry>
        </mxCell>
        <mxCell id="mZ2ww14Otbq7PTDc8xvk-1" value="&lt;b&gt;DataSync&lt;/b&gt;" style="sketch=0;points=[[0,0,0],[0.25,0,0],[0.5,0,0],[0.75,0,0],[1,0,0],[0,1,0],[0.25,1,0],[0.5,1,0],[0.75,1,0],[1,1,0],[0,0.25,0],[0,0.5,0],[0,0.75,0],[1,0.25,0],[1,0.5,0],[1,0.75,0]];outlineConnect=0;fontColor=#232F3E;gradientColor=#4AB29A;gradientDirection=north;fillColor=#116D5B;strokeColor=#ffffff;dashed=0;verticalLabelPosition=bottom;verticalAlign=top;align=center;html=1;fontSize=12;fontStyle=0;aspect=fixed;shape=mxgraph.aws4.resourceIcon;resIcon=mxgraph.aws4.datasync;" vertex="1" parent="1">
          <mxGeometry x="320" y="360" width="78" height="78" as="geometry" />
        </mxCell>
        <mxCell id="mZ2ww14Otbq7PTDc8xvk-11" style="edgeStyle=orthogonalEdgeStyle;rounded=0;orthogonalLoop=1;jettySize=auto;html=1;" edge="1" parent="1" source="mZ2ww14Otbq7PTDc8xvk-2" target="mZ2ww14Otbq7PTDc8xvk-3">
          <mxGeometry relative="1" as="geometry" />
        </mxCell>
        <mxCell id="mZ2ww14Otbq7PTDc8xvk-19" style="edgeStyle=orthogonalEdgeStyle;rounded=0;orthogonalLoop=1;jettySize=auto;html=1;strokeWidth=2;strokeColor=#EA6B66;dashed=1;dashPattern=1 1;" edge="1" parent="1" source="mZ2ww14Otbq7PTDc8xvk-2" target="mZ2ww14Otbq7PTDc8xvk-1">
          <mxGeometry relative="1" as="geometry">
            <Array as="points">
              <mxPoint x="199" y="320" />
              <mxPoint x="359" y="320" />
            </Array>
          </mxGeometry>
        </mxCell>
        <mxCell id="mZ2ww14Otbq7PTDc8xvk-22" value="Data" style="edgeLabel;html=1;align=center;verticalAlign=middle;resizable=0;points=[];" vertex="1" connectable="0" parent="mZ2ww14Otbq7PTDc8xvk-19">
          <mxGeometry x="0.0248" y="-3" relative="1" as="geometry">
            <mxPoint as="offset" />
          </mxGeometry>
        </mxCell>
        <mxCell id="mZ2ww14Otbq7PTDc8xvk-2" value="&lt;b&gt;S3&lt;/b&gt; Source" style="sketch=0;points=[[0,0,0],[0.25,0,0],[0.5,0,0],[0.75,0,0],[1,0,0],[0,1,0],[0.25,1,0],[0.5,1,0],[0.75,1,0],[1,1,0],[0,0.25,0],[0,0.5,0],[0,0.75,0],[1,0.25,0],[1,0.5,0],[1,0.75,0]];outlineConnect=0;fontColor=#232F3E;gradientColor=#60A337;gradientDirection=north;fillColor=#277116;strokeColor=#ffffff;dashed=0;verticalLabelPosition=bottom;verticalAlign=top;align=center;html=1;fontSize=12;fontStyle=0;aspect=fixed;shape=mxgraph.aws4.resourceIcon;resIcon=mxgraph.aws4.s3;" vertex="1" parent="1">
          <mxGeometry x="160" y="200" width="78" height="78" as="geometry" />
        </mxCell>
        <mxCell id="mZ2ww14Otbq7PTDc8xvk-12" style="edgeStyle=orthogonalEdgeStyle;rounded=0;orthogonalLoop=1;jettySize=auto;html=1;" edge="1" parent="1" source="mZ2ww14Otbq7PTDc8xvk-3" target="mZ2ww14Otbq7PTDc8xvk-10">
          <mxGeometry relative="1" as="geometry" />
        </mxCell>
        <mxCell id="mZ2ww14Otbq7PTDc8xvk-13" style="edgeStyle=orthogonalEdgeStyle;rounded=0;orthogonalLoop=1;jettySize=auto;html=1;" edge="1" parent="1" source="mZ2ww14Otbq7PTDc8xvk-3" target="mZ2ww14Otbq7PTDc8xvk-4">
          <mxGeometry relative="1" as="geometry" />
        </mxCell>
        <mxCell id="mZ2ww14Otbq7PTDc8xvk-3" value="&lt;b&gt;Event Bridge&lt;/b&gt;&lt;br&gt;(Created Object)" style="sketch=0;points=[[0,0,0],[0.25,0,0],[0.5,0,0],[0.75,0,0],[1,0,0],[0,1,0],[0.25,1,0],[0.5,1,0],[0.75,1,0],[1,1,0],[0,0.25,0],[0,0.5,0],[0,0.75,0],[1,0.25,0],[1,0.5,0],[1,0.75,0]];outlineConnect=0;fontColor=#232F3E;gradientColor=#FF4F8B;gradientDirection=north;fillColor=#BC1356;strokeColor=#ffffff;dashed=0;verticalLabelPosition=bottom;verticalAlign=top;align=center;html=1;fontSize=12;fontStyle=0;aspect=fixed;shape=mxgraph.aws4.resourceIcon;resIcon=mxgraph.aws4.eventbridge;" vertex="1" parent="1">
          <mxGeometry x="320" y="200" width="78" height="78" as="geometry" />
        </mxCell>
        <mxCell id="mZ2ww14Otbq7PTDc8xvk-15" style="edgeStyle=orthogonalEdgeStyle;rounded=0;orthogonalLoop=1;jettySize=auto;html=1;" edge="1" parent="1" source="mZ2ww14Otbq7PTDc8xvk-4">
          <mxGeometry relative="1" as="geometry">
            <mxPoint x="640" y="240" as="targetPoint" />
            <Array as="points">
              <mxPoint x="600" y="299" />
              <mxPoint x="600" y="240" />
            </Array>
          </mxGeometry>
        </mxCell>
        <mxCell id="mZ2ww14Otbq7PTDc8xvk-4" value="Object Queue" style="sketch=0;points=[[0,0,0],[0.25,0,0],[0.5,0,0],[0.75,0,0],[1,0,0],[0,1,0],[0.25,1,0],[0.5,1,0],[0.75,1,0],[1,1,0],[0,0.25,0],[0,0.5,0],[0,0.75,0],[1,0.25,0],[1,0.5,0],[1,0.75,0]];outlineConnect=0;fontColor=#232F3E;gradientColor=#FF4F8B;gradientDirection=north;fillColor=#BC1356;strokeColor=#ffffff;dashed=0;verticalLabelPosition=bottom;verticalAlign=top;align=center;html=1;fontSize=12;fontStyle=0;aspect=fixed;shape=mxgraph.aws4.resourceIcon;resIcon=mxgraph.aws4.sqs;" vertex="1" parent="1">
          <mxGeometry x="480" y="260" width="78" height="78" as="geometry" />
        </mxCell>
        <mxCell id="mZ2ww14Otbq7PTDc8xvk-17" style="edgeStyle=orthogonalEdgeStyle;rounded=0;orthogonalLoop=1;jettySize=auto;html=1;entryX=1;entryY=0.5;entryDx=0;entryDy=0;entryPerimeter=0;" edge="1" parent="1" source="mZ2ww14Otbq7PTDc8xvk-5" target="mZ2ww14Otbq7PTDc8xvk-1">
          <mxGeometry relative="1" as="geometry">
            <Array as="points">
              <mxPoint x="679" y="399" />
            </Array>
          </mxGeometry>
        </mxCell>
        <mxCell id="mZ2ww14Otbq7PTDc8xvk-21" style="edgeStyle=orthogonalEdgeStyle;rounded=0;orthogonalLoop=1;jettySize=auto;html=1;strokeColor=default;strokeWidth=1;" edge="1" parent="1" source="mZ2ww14Otbq7PTDc8xvk-5">
          <mxGeometry relative="1" as="geometry">
            <mxPoint x="720" y="490" as="targetPoint" />
            <Array as="points">
              <mxPoint x="760" y="239" />
              <mxPoint x="760" y="490" />
            </Array>
          </mxGeometry>
        </mxCell>
        <mxCell id="mZ2ww14Otbq7PTDc8xvk-5" value="Drain Queue,&lt;br&gt;Run DataSync Task" style="sketch=0;points=[[0,0,0],[0.25,0,0],[0.5,0,0],[0.75,0,0],[1,0,0],[0,1,0],[0.25,1,0],[0.5,1,0],[0.75,1,0],[1,1,0],[0,0.25,0],[0,0.5,0],[0,0.75,0],[1,0.25,0],[1,0.5,0],[1,0.75,0]];outlineConnect=0;fontColor=#232F3E;gradientColor=#F78E04;gradientDirection=north;fillColor=#D05C17;strokeColor=#ffffff;dashed=0;verticalLabelPosition=bottom;verticalAlign=top;align=center;html=1;fontSize=12;fontStyle=0;aspect=fixed;shape=mxgraph.aws4.resourceIcon;resIcon=mxgraph.aws4.lambda;" vertex="1" parent="1">
          <mxGeometry x="640" y="200" width="78" height="78" as="geometry" />
        </mxCell>
        <mxCell id="mZ2ww14Otbq7PTDc8xvk-6" value="&lt;b&gt;S3 &lt;/b&gt;Destination" style="sketch=0;points=[[0,0,0],[0.25,0,0],[0.5,0,0],[0.75,0,0],[1,0,0],[0,1,0],[0.25,1,0],[0.5,1,0],[0.75,1,0],[1,1,0],[0,0.25,0],[0,0.5,0],[0,0.75,0],[1,0.25,0],[1,0.5,0],[1,0.75,0]];outlineConnect=0;fontColor=#232F3E;gradientColor=#60A337;gradientDirection=north;fillColor=#277116;strokeColor=#ffffff;dashed=0;verticalLabelPosition=bottom;verticalAlign=top;align=center;html=1;fontSize=12;fontStyle=0;aspect=fixed;shape=mxgraph.aws4.resourceIcon;resIcon=mxgraph.aws4.s3;" vertex="1" parent="1">
          <mxGeometry x="160" y="360" width="78" height="78" as="geometry" />
        </mxCell>
        <mxCell id="mZ2ww14Otbq7PTDc8xvk-16" style="edgeStyle=orthogonalEdgeStyle;rounded=0;orthogonalLoop=1;jettySize=auto;html=1;entryX=0.5;entryY=0;entryDx=0;entryDy=0;entryPerimeter=0;" edge="1" parent="1" source="mZ2ww14Otbq7PTDc8xvk-8" target="mZ2ww14Otbq7PTDc8xvk-5">
          <mxGeometry relative="1" as="geometry" />
        </mxCell>
        <mxCell id="mZ2ww14Otbq7PTDc8xvk-8" value="Manifest" style="sketch=0;points=[[0,0,0],[0.25,0,0],[0.5,0,0],[0.75,0,0],[1,0,0],[0,1,0],[0.25,1,0],[0.5,1,0],[0.75,1,0],[1,1,0],[0,0.25,0],[0,0.5,0],[0,0.75,0],[1,0.25,0],[1,0.5,0],[1,0.75,0]];outlineConnect=0;fontColor=#232F3E;gradientColor=#60A337;gradientDirection=north;fillColor=#277116;strokeColor=#ffffff;dashed=0;verticalLabelPosition=bottom;verticalAlign=top;align=center;html=1;fontSize=12;fontStyle=0;aspect=fixed;shape=mxgraph.aws4.resourceIcon;resIcon=mxgraph.aws4.s3;" vertex="1" parent="1">
          <mxGeometry x="640" y="40" width="78" height="78" as="geometry" />
        </mxCell>
        <mxCell id="mZ2ww14Otbq7PTDc8xvk-9" value="&lt;b&gt;CloudWatch&lt;/b&gt;" style="sketch=0;points=[[0,0,0],[0.25,0,0],[0.5,0,0],[0.75,0,0],[1,0,0],[0,1,0],[0.25,1,0],[0.5,1,0],[0.75,1,0],[1,1,0],[0,0.25,0],[0,0.5,0],[0,0.75,0],[1,0.25,0],[1,0.5,0],[1,0.75,0]];points=[[0,0,0],[0.25,0,0],[0.5,0,0],[0.75,0,0],[1,0,0],[0,1,0],[0.25,1,0],[0.5,1,0],[0.75,1,0],[1,1,0],[0,0.25,0],[0,0.5,0],[0,0.75,0],[1,0.25,0],[1,0.5,0],[1,0.75,0]];outlineConnect=0;fontColor=#232F3E;gradientColor=#F34482;gradientDirection=north;fillColor=#BC1356;strokeColor=#ffffff;dashed=0;verticalLabelPosition=bottom;verticalAlign=top;align=center;html=1;fontSize=12;fontStyle=0;aspect=fixed;shape=mxgraph.aws4.resourceIcon;resIcon=mxgraph.aws4.cloudwatch_2;" vertex="1" parent="1">
          <mxGeometry x="640" y="440" width="78" height="78" as="geometry" />
        </mxCell>
        <mxCell id="mZ2ww14Otbq7PTDc8xvk-14" style="edgeStyle=orthogonalEdgeStyle;rounded=0;orthogonalLoop=1;jettySize=auto;html=1;entryX=0;entryY=0.5;entryDx=0;entryDy=0;entryPerimeter=0;" edge="1" parent="1" source="mZ2ww14Otbq7PTDc8xvk-10" target="mZ2ww14Otbq7PTDc8xvk-5">
          <mxGeometry relative="1" as="geometry" />
        </mxCell>
        <mxCell id="mZ2ww14Otbq7PTDc8xvk-10" value="Scheduled Event" style="sketch=0;outlineConnect=0;fontColor=#232F3E;gradientColor=none;fillColor=#B0084D;strokeColor=none;dashed=0;verticalLabelPosition=bottom;verticalAlign=top;align=center;html=1;fontSize=12;fontStyle=0;aspect=fixed;pointerEvents=1;shape=mxgraph.aws4.event_time_based;" vertex="1" parent="1">
          <mxGeometry x="480" y="140" width="78" height="78" as="geometry" />
        </mxCell>
      </root>
    </mxGraphModel>
  </diagram>
</mxfile>
